<?xml version="1.0" encoding="UTF-8"?>
<svg id="Layer_1" xmlns="http://www.w3.org/2000/svg" version="1.1" viewBox="0 0 807 276">
  <!-- Generator: Adobe Illustrator 30.0.0, SVG Export Plug-In . SVG Version: 2.1.1 Build 123)  -->
  <defs>
    <style>
      .st0 {
        fill: #231f20;
      }

      .st0, .st1, .st2 {
        fill-rule: evenodd;
      }

      .st3 {
        fill: none;
        stroke: #231f20;
        stroke-miterlimit: 10;
        stroke-width: .2px;
      }

      .st1 {
        fill: #077cc1;
      }

      .st4 {
        fill: #00a1e4;
      }

      .st5 {
        fill: #0d62ab;
      }

      .st2 {
        fill: #0060af;
      }

      .st6 {
        fill: #e0c375;
      }
    </style>
  </defs>
  <g>
    <path class="st1" d="M666.3,32.8c-1.8-.9-1.8-2.5-.1-3.5s4.6-1,6.3-.1,1.8,2.5.1,3.5c-1.7,1-4.6,1-6.3.1"/>
    <path class="st1" d="M753.6,164.7c.8.9-.2,2.8-2.1,4.4-1.9,1.6-4.1,2.1-4.8,1.2s.2-2.8,2.1-4.4c1.9-1.6,4.1-2.1,4.8-1.2"/>
    <path class="st1" d="M617.2,70.7c1.3,1,2.1,4.7-.1,7.3-2.2,2.6-6.7,3.2-7.9,2.2-1.3-1-1.7-4.5.6-7.1,2.2-2.6,6.2-3.4,7.5-2.4"/>
    <path class="st1" d="M606.4,90.7c2.8-.2,5.2,1.9,5.4,4.6s-2,5-4.8,5.2-5.2-1.9-5.4-4.6,2-5,4.8-5.2"/>
    <path class="st1" d="M622.8,103.5c3-.2,5.6,2,5.8,4.9s-2.1,5.4-5.1,5.6-5.6-2-5.8-4.9,2.1-5.4,5.1-5.6"/>
    <path class="st1" d="M640,94.1c3.4-.2,6.3,2.3,6.5,5.5.2,3.3-2.4,6.1-5.8,6.3-3.4.2-6.3-2.3-6.5-5.5-.2-3.3,2.4-6.1,5.8-6.3"/>
    <path class="st1" d="M625.9,82.3c3-.2,5.5,2,5.7,4.8s-2.1,5.3-5.1,5.5-5.5-2-5.7-4.8,2.1-5.3,5.1-5.5"/>
    <path class="st1" d="M713.6,128.7c3.1-.2,5.7,2.1,5.9,5s-2.2,5.5-5.2,5.7c-3.1.2-5.7-2.1-5.9-5s2.2-5.5,5.2-5.7"/>
    <path class="st1" d="M729.4,140.7c3.2-.2,6,2.1,6.2,5.2s-2.3,5.7-5.5,5.9-6-2.1-6.2-5.2,2.3-5.7,5.5-5.9"/>
    <path class="st1" d="M744.5,154.5c1.1.9.5,3.4-1.5,5.8s-4.5,3.5-5.6,2.6-.5-3.4,1.5-5.8,4.5-3.5,5.6-2.6"/>
    <path class="st1" d="M763.1,144.5c.8.9-.2,3-2.2,4.7s-4.4,2.3-5.2,1.3c-.8-.9.2-3,2.2-4.7s4.4-2.3,5.2-1.3"/>
    <path class="st1" d="M747.9,132c3.2-.2,6,2.1,6.2,5.2s-2.3,5.7-5.5,5.9-6-2.1-6.2-5.2,2.3-5.7,5.5-5.9"/>
    <path class="st1" d="M735.6,119.3c3.2-.2,6,2.1,6.2,5.2s-2.3,5.7-5.5,5.9-6-2.1-6.2-5.2,2.3-5.7,5.5-5.9"/>
    <path class="st1" d="M720.3,104.1c3.5-.2,6.6,2.4,6.8,5.8s-2.5,6.3-6,6.6-6.6-2.4-6.8-5.8,2.5-6.3,6-6.6"/>
    <path class="st1" d="M704.7,89.7c3.5-.2,6.5,2.3,6.7,5.7.2,3.3-2.5,6.2-5.9,6.4-3.5.2-6.5-2.3-6.7-5.7-.2-3.3,2.5-6.2,5.9-6.4"/>
    <path class="st1" d="M680.3,98.1c4-.2,7.3,2.6,7.6,6.4.2,3.8-2.8,7.1-6.7,7.3-4,.2-7.3-2.6-7.6-6.4-.2-3.8,2.8-7.1,6.7-7.3"/>
    <path class="st1" d="M686.7,75.6c3.5-.2,6.5,2.3,6.7,5.7.2,3.4-2.5,6.3-6,6.5s-6.5-2.3-6.7-5.7c-.2-3.4,2.5-6.3,6-6.5"/>
    <path class="st1" d="M709.3,68.8c3.2-.2,6,2.2,6.2,5.3s-2.3,5.8-5.5,6-6-2.2-6.2-5.3,2.3-5.8,5.5-6"/>
    <path class="st1" d="M725.4,63.8c1.9-1.9,5.3-1.7,7.7.4,2.3,2.2,2.7,5.4.8,7.3s-5.3,1.7-7.7-.4c-2.3-2.2-2.7-5.4-.8-7.3"/>
    <path class="st1" d="M742.9,60.1c1.9-1.9,5.3-1.7,7.7.4,2.3,2.2,2.7,5.4.8,7.3s-5.3,1.7-7.7-.4c-2.3-2.2-2.7-5.4-.8-7.3"/>
    <path class="st1" d="M741,77.6c2.1-1.7,5.5-1,7.6,1.4,2,2.4,2,5.7-.2,7.4-2.1,1.7-5.5,1-7.6-1.4-2-2.4-2-5.7.2-7.4"/>
    <path class="st1" d="M755.4,74.5c1.8-.8,4.1.2,5.2,2.2,1,2.1.4,4.4-1.5,5.3-1.8.8-4.1-.2-5.2-2.2-1-2.1-.4-4.4,1.5-5.3"/>
    <path class="st1" d="M754.8,91.9c1.8-.8,4.1.2,5.2,2.2,1,2.1.4,4.4-1.5,5.3-1.8.8-4.1-.2-5.2-2.2-1-2.1-.4-4.4,1.5-5.3"/>
    <path class="st1" d="M766.2,103.8c1.5-.3,2.9,1.3,3.2,3.6.3,2.3-.6,4.3-2,4.6-1.5.3-2.9-1.3-3.2-3.6-.3-2.3.6-4.3,2-4.6"/>
    <path class="st1" d="M765,123.4c1.5-.3,2.9,1.3,3.2,3.6.3,2.3-.6,4.3-2,4.6-1.5.3-2.9-1.3-3.2-3.6s.6-4.3,2-4.6"/>
    <path class="st1" d="M730.3,48c1.3-1,3.7,0,5.2,2,1.6,2.1,1.8,4.7.4,5.7-1.3,1-3.7,0-5.2-2-1.6-2.1-1.8-4.7-.4-5.7"/>
    <path class="st1" d="M725.8,82.1c3.3-.2,6.1,2.2,6.3,5.3.2,3.1-2.3,5.8-5.6,6.1-3.3.2-6.1-2.2-6.3-5.3-.2-3.1,2.3-5.8,5.6-6.1"/>
    <path class="st1" d="M740.6,97.5c2.7-.2,5.1,1.8,5.2,4.4.2,2.6-1.9,4.9-4.7,5.1s-5.1-1.8-5.2-4.4c-.2-2.6,1.9-4.9,4.7-5.1"/>
    <path class="st1" d="M692.7,55.5c3-.2,5.5,2,5.7,4.8s-2.1,5.3-5.1,5.5-5.5-2-5.7-4.8,2.1-5.3,5.1-5.5"/>
    <path class="st1" d="M670,63.5c3-.2,5.5,2,5.7,4.8s-2.1,5.3-5.1,5.5-5.5-2-5.7-4.8,2.1-5.3,5.1-5.5"/>
    <path class="st1" d="M647,72.1c3-.2,5.5,2,5.7,4.8s-2.1,5.3-5.1,5.5-5.5-2-5.7-4.8,2.1-5.3,5.1-5.5"/>
    <path class="st1" d="M633.5,70.5c-2.7.5-4.9-1.4-4.8-4.3,0-2.8,2.4-5.6,5.1-6,2.7-.5,4.9,1.4,4.8,4.3,0,2.8-2.4,5.6-5.1,6.1"/>
    <path class="st1" d="M653.4,62.3c-2.8-.3-4.2-2.7-3.3-5.4,1-2.7,4-4.7,6.7-4.4s4.2,2.7,3.3,5.4-4,4.7-6.7,4.4"/>
    <path class="st1" d="M672.4,53.2c-2.2-1.5-2.3-4.3,0-6.3s5.8-2.2,8.1-.7c2.2,1.5,2.3,4.3,0,6.3s-5.8,2.2-8.1.7"/>
    <path class="st1" d="M695,47.8c-1.6-1.1-1.6-3.1,0-4.5s4.2-1.6,5.8-.5,1.6,3.1,0,4.5-4.2,1.6-5.8.5"/>
    <path class="st1" d="M679.7,40.1c-1.6-1.1-1.6-3.1,0-4.5s4.2-1.6,5.8-.5,1.6,3.1,0,4.5-4.2,1.6-5.8.5"/>
    <path class="st1" d="M696.4,34.6c-.6-1.7.5-3.2,2.5-3.5,2-.2,4,.9,4.7,2.6.6,1.7-.5,3.2-2.5,3.5-2,.2-4-.9-4.7-2.6"/>
    <path class="st1" d="M713.1,41.2c-.7-2,.6-3.8,2.9-4.1,2.3-.3,4.8,1.1,5.5,3,.7,2-.6,3.8-2.9,4.1s-4.8-1.1-5.5-3"/>
    <path class="st1" d="M639,51c-1.9-.9-2.3-3.1-.8-4.9s4.3-2.4,6.2-1.5,2.3,3.1.8,4.9-4.3,2.4-6.2,1.5"/>
    <path class="st1" d="M660.3,45.4c-1.9-.9-2.3-3.1-.8-4.9s4.3-2.4,6.2-1.5,2.3,3.1.8,4.9-4.3,2.4-6.2,1.5"/>
    <path class="st1" d="M647.8,39.5c-2-.2-2.7-1.5-1.6-3.1,1.2-1.6,3.7-2.7,5.8-2.6,2,.2,2.7,1.5,1.6,3.1-1.2,1.6-3.7,2.7-5.8,2.6"/>
    <path class="st1" d="M663,85.1c3.3-.2,6.1,2.2,6.3,5.4.2,3.2-2.3,5.9-5.6,6.1s-6.1-2.2-6.3-5.3c-.2-3.2,2.3-5.9,5.6-6.1"/>
    <path class="st1" d="M751.9,110.5c1.9-.4,3.8,1.7,4.2,4.7s-.8,5.7-2.7,6.1-3.8-1.7-4.2-4.7.8-5.7,2.7-6.1"/>
    <path class="st1" d="M710.3,51.9c1.7-1.7,4.7-1.5,6.7.4s2.4,4.8.7,6.4c-1.7,1.7-4.7,1.5-6.7-.4s-2.4-4.8-.7-6.4"/>
    <path class="st1" d="M625.2,53.5c1.1.8,1.8,4,0,6.2-1.9,2.2-5.6,2.7-6.7,1.9-1.1-.8-1.4-3.8.5-6s5.3-2.9,6.3-2"/>
    <path class="st2" d="M394.5,159.2v-36.4c0-.8,0-1.7-.1-2.5,0-.6-.2-1.1-.4-1.7-.1-.4-.4-.8-.7-1.1-.4-.4-.9-.7-1.3-1l-3.2-2,3.8.4c1,0,1.9.2,2.9.2h5.5c1,0,1.9-.1,2.9-.2l3.5-.3-2.9,2c-.8.5-1.4,1.2-1.6,2-.4,1.2-.4,2.9-.4,4.2v35.1l-.4.3c-2,1.3-4.1,2.7-6.2,4-.7.4-1.4.9-2,1.3-1.2.8-2.6,1.5-3.9,2.1-1.7.8-3.5,1.3-5.4,1.8-2.1.5-4.2.8-6.4.8s-5.4-.4-7.9-1.4c-2.4-.9-4.5-2.2-6.4-4-1.9-1.9-3.3-4.1-4.2-6.5-1.1-2.8-1.5-5.8-1.5-8.8v-24.6c0-.9,0-1.8-.3-2.7-.2-.6-.4-1.2-.8-1.7-.3-.4-.6-.8-1-1.1-.4-.3-.8-.5-1.2-.8l-4.3-2.6,5,1h10c.7,0,1.5,0,2.2-.2l3.7-.8-2.9,2.3c-.3.2-.6.5-.9.8s-.5.6-.7,1c-.3.6-.4,1.2-.5,1.8-.2.9-.2,1.8-.2,2.8v26.5c0,2.3.3,4.6,1.3,6.7.8,1.8,1.9,3.3,3.4,4.6,1.4,1.2,3,2.1,4.8,2.6,1.8.6,3.6.9,5.5.9s3.2-.2,4.7-.7c1.5-.4,3-1,4.4-1.6,1.1-.5,2.2-1.1,3.2-1.8.3-.2.7-.4,1-.7l.1-.1"/>
    <path class="st2" d="M431.2,128.2v31.1c0,1.3.1,3.2.9,4.3.7,1.1,2.1,1.8,3.3,2.3l5,2-7.8-.5c-.7,0-1.5,0-2.2-.1h-4.9c-1.1,0-2.2.1-3.3.2l-4.1.5,3.6-2.1c1-.6,2-1.4,2.7-2.4.7-1.1.9-3,.9-4.3v-36c0-.9,0-1.8-.1-2.7,0-.6-.2-1.2-.4-1.7-.2-.4-.5-.8-.8-1.2-.5-.4-1-.8-1.6-1.2l-3.7-2.1,4.2.4c.5,0,1,0,1.6.1.6,0,1.3,0,1.9.1h5.3c.8,0,1.6,0,2.3-.1s1.5,0,2.3-.1l2.8-.2-2.1,1.8c-.2.2-.8.7-.9.9v1.1c0,.4,0,.8.2,1.2.2.4.5.9.8,1.2.5.6,1,1.2,1.6,1.7.8.8,1.6,1.7,2.4,2.6l24.2,27.4v-32c0-.6-.1-1.2-.3-1.8-.1-.4-.3-.8-.5-1.2-.3-.4-.8-.8-1.2-1.1l-2.4-1.8,4.6.4c.5,0,1,0,1.5.1h2.9c.5,0,1.1,0,1.6-.1.6,0,1.2,0,1.8-.1l4.9-.4-4.5,2.1c-.9.4-1.7,1-2,2-.4,1.4-.5,3.2-.5,4.7v49.9l-39.9-45h0l-.1.1Z"/>
    <path class="st2" d="M510.7,167.7c-1,0-2,0-3-.1-.9,0-1.7,0-2.6-.1h-6.6c-1.2,0-2.4,0-3.5.2l-4.6.5,4-2.2c1-.6,1.9-1.3,2.5-2.3.8-1.2,1-3,1-4.4v-38.7c0-.6-.1-1.2-.3-1.8-.1-.4-.3-.8-.6-1.2-.3-.4-.8-.8-1.2-1.1l-2.3-1.8,2.9.2c.7,0,1.4,0,2,.1s1.4,0,2,.1h4.6c.7,0,1.4,0,2-.1s1.4,0,2-.1l2.9-.2-2.3,1.8c-.4.3-.9.7-1.2,1.1-.3.3-.5.7-.6,1.2-.2.6-.3,1.2-.3,1.8v38.7c0,1.3.1,3.2.9,4.3.7,1,1.6,1.8,2.6,2.4l3.2,1.8-3.7-.2h0l.2.1Z"/>
    <path class="st2" d="M574.9,144c0-3.6-.4-7.1-1.5-10.5-.9-3-2.2-5.8-4.1-8.3-1.6-2.2-3.6-4.1-6-5.5-2.3-1.3-4.7-2-7.3-2s-5.1.5-7.4,1.7c-2.2,1.2-4,2.8-5.5,4.8-1.6,2.2-2.7,4.6-3.4,7.2-.8,2.9-1.2,5.9-1.2,8.9s.5,6.6,1.5,9.7c1,2.8,2.3,5.5,4.2,7.8,1.8,2.1,3.9,3.9,6.3,5.2,2.5,1.3,5.1,1.9,7.8,1.9s4.3-.5,6.3-1.5,3.8-2.4,5.2-4.2c1.6-1.9,2.8-4.2,3.6-6.6.9-2.8,1.3-5.7,1.3-8.6M568.3,166.6c-.6.3-1.2.5-1.8.7-.9.3-1.8.6-2.7.8-1,.2-1.9.4-2.9.5-.9.1-1.9.2-2.8.2-4,0-8-.6-11.7-1.9-3.4-1.2-6.6-3-9.2-5.5-2.7-2.4-4.7-5.4-6.1-8.7-1.5-3.6-2.2-7.5-2.2-11.4s.6-7.7,2.1-11.3c1.3-3.3,3.2-6.2,5.8-8.7,2.5-2.5,5.4-4.3,8.7-5.6,3.4-1.4,7-2,10.7-2s8.7.7,12.6,2.5c3.4,1.6,6.4,3.7,8.9,6.6,2.4,2.8,4.1,5.9,5.2,9.4,1.1,3.5,1.7,7.1,1.7,10.8s-.2,4.4-.8,6.4c-.5,1.8-1.2,3.5-2.1,5.1-.8,1.4-1.8,2.8-2.8,4-.7.8-1.5,1.6-2.2,2.4,4.8,3.2,9.8,6.2,15,8.7,4.8,2.3,9.8,4.3,14.9,5.9,4.5,1.4,9,2.4,13.7,3.1,4,.6,8.2.9,12.2.9s7.9-.2,11.8-.9c3.2-.5,6.5-1.2,9.7-2.2l4.7-1.5-3.9,3c-3.2,2.5-7.2,4-11.1,4.9-5.1,1.3-10.5,1.7-15.7,1.7s-9.5-.4-14.2-1.1c-5.1-.7-10.2-1.9-15.2-3.3-5.3-1.5-10.5-3.5-15.5-5.7-5.1-2.3-10-5-14.6-8h0l-.2.2Z"/>
    <path class="st2" d="M637.5,163.5c-.3.2-.7.4-1.1.7-1.2.7-2.5,1.4-3.8,1.9-1.5.6-3.1,1.1-4.7,1.5-1.8.4-3.6.6-5.5.6-2.7,0-5.5-.4-8-1.4-2.4-.9-4.6-2.3-6.5-4.1-1.9-1.9-3.3-4.1-4.3-6.6-1.1-2.8-1.6-5.8-1.6-8.8v-23.9c0-.9,0-1.8-.1-2.7,0-.6-.2-1.2-.4-1.8-.2-.4-.5-.8-.8-1.2-.5-.4-1.2-.8-1.8-1.2l-3.8-2.1,4.3.4c1.2,0,2.4.2,3.6.2h7.6c1,0,2,0,3.1-.2l3.6-.4-3,2c-.5.3-1,.7-1.4,1.1-.3.3-.5.8-.7,1.2-.2.6-.3,1.2-.4,1.8,0,.9-.1,1.8-.1,2.7v25.7c0,2.1.2,4.4,1,6.4.6,1.6,1.5,3.2,2.8,4.4,1.2,1.2,2.6,2,4.2,2.6,1.8.6,3.6.9,5.5.9s2.6-.2,3.9-.6c1.4-.4,2.7-.9,4-1.4,1.1-.5,2.2-1,3.2-1.7.4-.2,1-.6,1.4-1v-38.1c0-.6-.1-1.2-.3-1.8-.2-.4-.4-.8-.8-1.2-.5-.4-1-.8-1.6-1.1l-3.4-1.9,3.9.3c1.3,0,2.6.2,3.9.2h6.2c1.1,0,2.2-.1,3.4-.2l3.3-.3-2.7,1.9c-.4.3-.9.7-1.2,1.1s-.5.8-.6,1.2c-.2.6-.3,1.2-.3,1.8v38.7c0,1.4.2,3.2.9,4.4.7,1,1.5,1.8,2.6,2.4l3.9,2.2-4.5-.5c-.4,0-.9,0-1.3-.1-.5,0-1,0-1.5-.1h-6c-.8,0-1.5,0-2.3.1-1,0-2,.1-2.9.1l-3.4.2,2.9-1.8c.6-.4,1-.9,1.4-1.4.2-.3.3-.7.4-1.1"/>
    <path class="st2" d="M681.2,119.3v18.8h7.9c.8,0,1.8-.1,2.5-.6s1.1-.7,1.5-1.2h0c.5-.6.8-1.2,1-1.9l.2-.8,1.6.4v.8c-.2.6-.3,1.3-.3,2,0,.6,0,1.2-.1,1.8v2.9c0,.5.1,1.1.2,1.6h0c.1.8.2,1.5.3,2.2l.7,5.4-2.4-4.9c-.3-.6-.7-1.1-1.2-1.6s-1-.8-1.6-1.1c-.7-.4-1.6-.5-2.4-.5h-7.9v21h7.8c2.1,0,4.3-.2,6.3-1,1.5-.6,2.5-1.7,3-3.2l1.7-5.3v6.8c0,.4,0,.8.1,1.2v1c0,2.8-1.1,5.1-4.2,5.1h-4.3c-2,0-3.9-.1-5.9-.2-1.9,0-3.8-.1-5.8-.2-1.2,0-2.5-.1-3.7-.1h-2.5c-.8,0-1.7,0-2.5.1-.9,0-1.9.1-2.8.1l-3.4.2,2.8-1.8c1-.7,1.9-1.5,2.7-2.5.8-1.1.9-3,.9-4.3v-38.7c0-.6-.1-1.2-.3-1.8-.1-.4-.3-.9-.6-1.2-.3-.4-.7-.7-1.1-1l-2.6-1.8,3.2.2c.8,0,1.5,0,2.3.1.6,0,1.2,0,1.8.1h5.5c1.6,0,3.1,0,4.7-.1,1.4,0,2.8,0,4.2-.1h2.5c.8,0,1.8.4,2.5,1.1.5.6.9,1.4,1.2,2.2.3.8.5,1.6.5,2.4,0,.6.1,1.2.1,1.8v4l-1.7-3.7c-.3-.6-.7-1.3-1.1-1.8-.4-.4-.8-.7-1.3-1-.6-.3-1.3-.4-2-.5h-8v-.4Z"/>
    <path class="st2" d="M633.7,193.8v17.2h3c1,0,1.9-.2,2.8-.5.9-.3,1.7-.8,2.5-1.4.8-.7,1.3-1.5,1.7-2.4.5-1.1.6-2.3.6-3.5s-.2-3.1-.7-4.4c-.4-1.1-.9-2.1-1.7-2.9-.7-.7-1.5-1.3-2.4-1.6s-1.8-.5-2.7-.5h-1.7c-.5,0-1,0-1.5.2M602,214c0-2.8-.4-5.5-1.2-8.1-.7-2.4-1.7-4.7-3.2-6.8-1.3-1.8-2.9-3.4-4.8-4.6-1.9-1.1-3.9-1.7-6.1-1.7s-4.2.4-6.2,1.4c-1.8.9-3.2,2.2-4.4,3.8-1.2,1.8-2.1,3.7-2.6,5.8-.6,2.4-.9,4.8-.9,7.3s.4,5.2,1.2,7.8c.8,2.3,1.8,4.5,3.3,6.4,1.4,1.8,3.1,3.2,5.1,4.3s4.2,1.6,6.5,1.6,3.2-.4,4.8-1c1.6-.7,3-1.8,4.2-3.1,1.4-1.6,2.4-3.4,3.1-5.4.9-2.4,1.2-5.1,1.2-7.7h0ZM676.5,229.9c-.2-1.1-.3-2.1-.4-3.2v-5.3l1.1,2.4c.5,1,.9,2,1.4,2.9.4.7.8,1.4,1.4,2h0c.8.9,1.8,1.4,3,1.7,1.6.4,3.3.5,4.9.5s1.8-.1,2.7-.4c.9-.2,1.8-.6,2.5-1.1.8-.5,1.4-1.2,1.8-1.9.5-.8.7-1.8.7-2.7,0-1.4-.5-2.6-1.3-3.7-1-1.3-2.2-2.5-3.4-3.5-1.5-1.2-3-2.3-4.5-3.4-1.6-1.1-3.2-2.3-4.6-3.6-1.4-1.2-2.6-2.6-3.6-4.2-1-1.6-1.5-3.3-1.5-5.2s.3-2.9.8-4.3c.5-1.3,1.3-2.5,2.4-3.5,1-1,2.2-1.8,3.6-2.4,1.4-.6,3-.9,4.5-.9s2.2,0,3.3.3c.8.2,1.7.4,2.5.6.7.2,1.3.5,1.9.8.5.2,1,.5,1.6.6h0c.2,0,.4.1.6.2.3,0,.5.1.8.2h.5c0,.1-.3,2-.3,2h0c0,.3-.1.7-.1,1v6.2h-1.1c0,.1-.1-.4-.1-.4-.2-.8-.4-1.6-.6-2.5-.2-.6-.4-1.3-.6-1.9-.1-.4-.3-.9-.5-1.2-.2-.4-.7-.7-1-.9-.6-.4-1.3-.8-2-1.1-.8-.4-1.6-.6-2.5-.9-.8-.2-1.6-.4-2.4-.4s-1.8.1-2.6.4c-.7.3-1.4.6-2,1.2-.5.5-.9,1-1.2,1.7-.3.6-.4,1.3-.4,1.9,0,1.1.5,2.1,1.3,2.9,1,1.2,2.2,2.2,3.5,3.2,1.5,1.2,3,2.4,4.6,3.5,1.7,1.2,3.2,2.5,4.7,3.9,1.4,1.4,2.7,2.9,3.7,4.6s1.5,3.5,1.5,5.5-.3,3.8-1.1,5.5c-.7,1.5-1.7,2.8-3,3.9-1.3,1-2.7,1.8-4.3,2.3s-3.2.7-4.9.7-2.1,0-3.1-.2c-.7-.1-1.3-.3-2-.5-.5-.2-.9-.3-1.4-.5-.3-.1-.7-.2-1.1-.2h-.4c-.2,0-.3.2-.4.2l-.4.2-.3-.3c-.3-.3-.6-.7-.9-1-.4-.5-.7-1.1-.8-1.8h0l-.5.1ZM638.1,213.9h-4.4v12.6c0,1.1.1,2.6.7,3.5.5.8,1.3,1.5,2.2,2l2.1,1.2h-2.4c-.7-.2-1.3-.2-2-.3h-7.5c-1,0-2,.1-3,.2l-2.5.2,2.2-1.3c.8-.5,1.5-1.1,2.1-1.9.7-1,.8-2.4.8-3.6v-31.3c0-.5,0-1-.2-1.5-.1-.4-.3-.7-.5-1-.3-.3-.6-.6-1-.9l-1.6-1.3,2.1.2c.8,0,1.6.1,2.4.2h10.8c1.7,0,3.3.2,4.9.8,1.5.5,2.9,1.2,4.1,2.2,1.2,1,2.1,2.1,2.8,3.5s1.1,3,1.1,4.6-.2,2.9-.8,4.2c-.5,1.1-1.1,2.2-1.9,3.2-.7.8-1.4,1.6-2.3,2.1-.4.3-.8.5-1.2.8.6.9,1.2,1.7,1.7,2.6,1,1.4,1.9,2.8,2.9,4.2,1.1,1.6,2.3,3.1,3.5,4.6s2.5,2.9,3.8,4.3c1.2,1.2,2.4,2.3,3.8,3.2,1,.7,2.2,1.2,3.5,1.3h2.3c0,.1-2,1.1-2,1.1-.2,0-.4.1-.6.1h-.8c-1.3,0-2.6,0-3.9-.2-1.3-.1-2.6-.4-3.9-.8-1.3-.4-2.5-.9-3.7-1.6-1.2-.7-2.4-1.7-3.3-2.8-.9-1-1.8-2.2-2.6-3.3-1-1.4-2-2.8-3-4.3-.9-1.4-1.8-2.8-2.7-4.2-.5-.9-1.1-1.7-1.6-2.5h0l-.4-.1ZM609.5,213.4c0,2.9-.6,5.8-1.9,8.4-1.2,2.5-2.9,4.7-5,6.5-2,1.8-4.3,3.2-6.8,4.2-2.4.9-5,1.5-7.6,1.5s-6.3-.5-9.3-1.6c-2.7-1-5.2-2.5-7.3-4.5s-3.6-4.4-4.7-7.1c-1.2-2.9-1.6-6.1-1.6-9.3s.5-6.1,1.7-8.9c1.1-2.6,2.7-4.9,4.7-6.9,2-1.9,4.3-3.4,6.9-4.4,2.6-1.1,5.4-1.6,8.2-1.6s7.2.5,10.4,2.1c2.7,1.3,5.1,3.1,7,5.5,1.8,2.3,3.1,4.8,4,7.6.8,2.7,1.2,5.5,1.2,8.3h0l.1.2ZM533.3,194.5h-8.4c-.9,0-1.9,0-2.8.2-.5,0-1,.3-1.3.7s-.6.9-.8,1.3c-.4.8-.7,1.7-.9,2.5l-1.2,3.8v-6.6c0-.9.2-1.8.4-2.7.2-.8.7-1.6,1.3-2.2.7-.7,1.7-.9,2.6-.9h2.5c1.3,0,2.5.1,3.8.2,1.5,0,2.9.1,4.4.1h18.5c.8,0,1.9.2,2.7.9.6.6,1,1.3,1.2,2.1s.4,1.7.4,2.6v6.2l-1.2-3.4c-.2-.7-.5-1.4-.8-2.1-.2-.5-.6-1-1-1.4s-.9-.6-1.4-.8c-.7-.2-1.5-.3-2.2-.3h-8.3v32c0,1.1.1,2.6.8,3.6.6.9,1.5,1.5,2.4,2l2.5,1.2h-2.8c-.8-.2-1.7-.2-2.5-.2h-7.7c-.6,0-1.1,0-1.7.1h-1.3l-3.6.4,3.2-1.5c.9-.4,1.7-1.1,2.3-1.9.7-1,.8-2.4.8-3.6v-32h0l.1-.3ZM470.6,201.1v25.4c0,1.1.1,2.6.7,3.6.6.9,1.7,1.5,2.7,1.9l3.3,1.4-5.5-.3h-5.7c-.9,0-1.8.1-2.6.2l-2.7.3,2.4-1.4c.9-.5,1.6-1.2,2.2-2,.6-.9.7-2.5.7-3.5v-31.2c0-.5-.1-1-.3-1.4-.1-.4-.4-.7-.7-1-.4-.4-.8-.7-1.3-.9l-2.4-1.4,2.8.3c.4,0,.8,0,1.2.1h7.7c.7,0,1.2,0,1.9-.1h1.8c0-.1-1.4,1.1-1.4,1.1-.2.1-.7.6-.8.8v.9c0,.4,0,.7.2,1,.2.4.4.7.7,1,.4.5.8.9,1.3,1.4.6.7,1.3,1.4,1.9,2.1l19.5,22.4v-26.1c0-.5-.1-1-.2-1.5,0-.4-.2-.7-.5-1s-.6-.6-1-.9l-1.6-1.2,3.3.3h4.8c.5,0,1,0,1.5-.1l3.2-.2-2.9,1.4c-.8.4-1.5.9-1.7,1.7-.3,1.1-.4,2.6-.4,3.8v40l-31.9-36.3h0l-.2-.6ZM435.7,194.1v15.4h6.4c.7,0,1.4-.1,2-.5.5-.3.9-.6,1.2-1h0c.4-.5.6-1,.8-1.6l.2-.5,1.1.2v.6c-.2.5-.2,1.1-.3,1.6v3.8c0,.4.1.9.2,1.3h0c0,.6.2,1.2.2,1.8l.5,3.6-1.6-3.3c-.2-.5-.6-.9-1-1.3-.4-.4-.9-.7-1.3-.9-.6-.3-1.3-.4-2-.4h-6.4v17.2h6.3c1.7,0,3.5-.2,5-.8,1.3-.5,2.1-1.4,2.5-2.7l1.2-3.6v6.4c0,2.2-.8,4-3.2,4h-3.4c-1.6,0-3.1,0-4.7-.1-1.5,0-3.1-.1-4.6-.2h-7c-.7,0-1.5,0-2.2.1h-2.2c0,.1,1.9-1.1,1.9-1.1.8-.5,1.6-1.2,2.1-2,.6-.9.8-2.4.8-3.5v-31.3c0-.5-.1-1-.2-1.5-.1-.4-.3-.7-.5-1s-.6-.6-.9-.9l-1.7-1.2h2.1c.6.2,1.2.2,1.8.2h5.9c1.2,0,2.5,0,3.8-.1,1.1,0,2.2,0,3.3-.1h2c.7,0,1.4.3,1.9.9.4.5.7,1.1,1,1.7.2.6.4,1.3.4,1.9v4.2l-1.1-2.5c-.2-.5-.5-1.1-.9-1.5-.3-.4-.7-.6-1.1-.8-.5-.2-1.1-.3-1.6-.4h-6.5l-.2-.1ZM395.5,203.4l-14.9,32.5-15.9-33.5c-.8,4-1.5,8.1-2.3,12.1-.3,1.7-.6,3.4-1,5.2-.3,1.5-.6,3.1-.8,4.6-.2,1.1-.4,2.2-.6,3.4,0,.3-.1.7-.2,1v.4c0,.6.2,1.2.6,1.7.5.6,1.1,1,1.9,1.2l.5.2-.2,1-2.1-.2h-6.8l-5.1.3,2.7-1.3c.6-.3,1.3-.7,1.9-1,.5-.3.8-.7,1.1-1.1.4-.6.7-1.2.9-1.9.4-1.1.6-2.2.8-3.3.9-4.6,1.9-9.1,2.8-13.7.4-1.7.7-3.4,1-5.2.3-1.5.6-3.1.9-4.6.2-1.1.5-2.2.7-3.4,0-.4.1-.7.2-1.1v-1.4c0-.4-.2-.8-.4-1.1-.2-.4-.6-.8-.9-1.2-.5-.5-1.1-.8-1.7-1.1l-3-1.3,3.3.2c.7,0,1.4,0,2.1.1h5.8c.6,0,1.2,0,1.8-.1h.6v.6c0,1.1,0,2.4.3,3.5.2.9.6,1.7,1,2.5l12,24.8,11.2-24c.3-.8.7-1.5,1-2.3.2-.4.3-.9.3-1.4s0-1.1-.2-1.6c-.2-.4-.7-.8-1-1.1l-1.5-1.1h1.9c.8.1,1.6.2,2.5.2h6.2c.8,0,1.6,0,2.4-.1h3.2c0-.1-3,1.1-3,1.1-.8.3-1.7.8-2.3,1.5-.4.4-.6.9-.6,1.5v.7c0,.5,0,1,.1,1.5.1,1,.2,2.1.3,3.1.2,1.7.4,3.5.6,5.2.4,2.6.7,5.3,1,7.9.5,3.8,1,7.6,1.5,11.3.1,1,.3,1.9.5,2.9.2.7.4,1.4.8,2s.8,1,1.4,1.4c.7.5,1.6.8,2.4,1h.5c0,.1-.2,1.2-.2,1.2h-.5c-.8,0-1.6,0-2.5-.1h-8.8l-5.5.3,3-1.3c.6-.2,1.2-.6,1.5-1.2.2-.3.4-.8.4-1.2,0-.7,0-1.5-.1-2.2-.1-1.2-.3-2.4-.4-3.7-.2-1.5-.4-3.1-.6-4.6-.2-1.7-.5-3.3-.7-5-.5-3.6-1-7.2-1.6-10.8h0l-.2.1Z"/>
    <path class="st0" d="M565.8,89.3l-2.2,2.1c-.9-.9-1.7-1.3-2.5-1.3s-.7,0-.9.2-.3.4-.3.6,0,.3.2.5.5.4,1.1.6l1.3.6c1.4.7,2.3,1.3,2.8,2s.8,1.5.8,2.4-.5,2.2-1.4,3-2.2,1.2-3.8,1.2-3.7-.8-5-2.3l2.2-2.3c.4.5.9.8,1.5,1.1.6.3,1.1.4,1.5.4s.9-.1,1.1-.3c.3-.2.4-.5.4-.8,0-.5-.5-1-1.6-1.5l-1.2-.6c-2.3-1.1-3.5-2.5-3.5-4.2s.4-2,1.3-2.8,2-1.2,3.3-1.2,1.8.2,2.6.6,1.5.9,2.1,1.7M550.2,82.1h3.6v19h-3.6v-19ZM543.8,82.1h3.6v19h-3.6v-19ZM537.3,87.4h3.6v13.7h-3.6v-13.7ZM539.1,81.7c.6,0,1.2.2,1.6.7s.7,1,.7,1.6-.2,1.1-.7,1.6c-.4.4-1,.6-1.6.6s-1.2-.2-1.6-.7-.7-1-.7-1.6.2-1.1.7-1.5c.4-.4,1-.6,1.6-.6h0v-.1ZM522.2,82.1h3.6v10.9l5.3-5.6h4.5l-6.1,6.5,6.9,7.1h-4.5l-6.1-6.3v6.3h-3.6v-19h0v.1ZM518.7,85.1l-2.7,2.3c-1-1.3-1.9-1.9-2.9-1.9s-.9.1-1.2.4c-.3.2-.5.5-.5.8s.1.6.3.9c.3.4,1.2,1.2,2.7,2.4,1.4,1.1,2.2,1.8,2.5,2.1.7.7,1.3,1.4,1.6,2.1s.5,1.4.5,2.2c0,1.5-.5,2.8-1.6,3.8s-2.5,1.5-4.3,1.5-2.6-.3-3.6-1-1.9-1.7-2.6-3l3.1-1.8c.9,1.6,2,2.4,3.2,2.4s1.2-.2,1.6-.5c.4-.3.6-.8.6-1.2s-.2-.8-.5-1.3c-.3-.4-1-1.1-2.2-1.9-2.1-1.6-3.5-2.9-4.1-3.8s-.9-1.8-.9-2.7c0-1.3.5-2.4,1.5-3.3s2.3-1.4,3.8-1.4,1.9.2,2.8.6,1.8,1.2,2.8,2.3h.1ZM489.7,90.2c-1.1,0-2.1.4-2.8,1.1-.7.7-1.1,1.6-1.1,2.7s.4,2.1,1.1,2.8,1.7,1.1,2.8,1.1,2-.4,2.8-1.1c.7-.7,1.1-1.6,1.1-2.8s-.4-2.1-1.1-2.8-1.7-1.1-2.8-1.1h0v.1ZM493.5,87.4h3.5v11.7c0,2.3-.5,4-1.5,5.1-1.3,1.5-3.3,2.2-5.9,2.2s-2.6-.2-3.5-.5-1.8-.8-2.4-1.5c-.7-.7-1.1-1.4-1.5-2.4h4c.4.4.8.7,1.4.9.5.2,1.2.3,2,.3s1.7-.1,2.3-.4,1-.7,1.2-1.1.4-1.2.4-2.3c-.6.6-1.3,1-2,1.3s-1.5.4-2.4.4c-1.9,0-3.5-.7-4.9-2-1.3-1.3-2-3-2-5s.7-3.9,2.1-5.2c1.3-1.2,2.8-1.8,4.6-1.8s1.6.2,2.3.4c.7.3,1.5.8,2.2,1.4v-1.5h.1ZM466.8,87.4h3.6v1.4c.8-.7,1.5-1.1,2.2-1.4.7-.2,1.3-.4,2-.4,1.4,0,2.6.5,3.6,1.4.8.8,1.2,2,1.2,3.6v9h-3.5v-6c0-1.6,0-2.7-.2-3.2-.1-.5-.4-.9-.8-1.2-.4-.3-.9-.4-1.4-.4s-1.4.2-1.9.7-.9,1.1-1.1,1.9c-.1.4-.2,1.3-.2,2.8v5.5h-3.6v-13.7h.1ZM459.9,87.4h3.6v13.7h-3.6v-13.7ZM461.7,81.7c.6,0,1.2.2,1.6.7.5.4.7,1,.7,1.6s-.2,1.1-.7,1.6c-.4.4-1,.6-1.6.6s-1.2-.2-1.6-.7-.7-1-.7-1.6.2-1.1.7-1.5c.4-.4,1-.6,1.6-.6h0v-.1ZM444.2,87.4h3.6v1.4c.8-.7,1.5-1.1,2.2-1.4.7-.2,1.3-.4,2-.4,1.4,0,2.6.5,3.6,1.4.8.8,1.2,2,1.2,3.6v9h-3.5v-6c0-1.6,0-2.7-.2-3.2-.1-.5-.4-.9-.8-1.2-.4-.3-.9-.4-1.4-.4s-1.4.2-1.9.7-.9,1.1-1.1,1.9c-.1.4-.2,1.3-.2,2.8v5.5h-3.6v-13.7h.1ZM437.7,92.5c-.2-.8-.7-1.4-1.4-1.8-.7-.5-1.5-.7-2.4-.7s-1.9.3-2.6.8c-.5.3-.9.9-1.3,1.7h7.8-.1ZM441.3,95.2h-11.5c.2,1,.6,1.8,1.3,2.3s1.6.9,2.8.9,2.5-.4,3.4-1.3l3,1.4c-.8,1-1.6,1.8-2.7,2.3-1,.5-2.3.7-3.7.7-2.2,0-4-.7-5.5-2-1.4-1.3-2.1-3-2.1-5.1s.7-3.8,2.1-5.2c1.4-1.4,3.2-2.1,5.3-2.1s4.1.7,5.5,2.1,2.1,3.2,2.1,5.4v.7h0v-.1ZM416.6,90.2c-1.1,0-2.1.4-2.8,1.1-.7.7-1.1,1.7-1.1,2.9s.4,2.2,1.1,2.9c.7.8,1.7,1.1,2.8,1.1s2-.4,2.8-1.1,1.1-1.7,1.1-2.9-.4-2.1-1.1-2.9-1.7-1.1-2.8-1.1ZM412.8,87.4v1.5c.6-.6,1.3-1.1,2.1-1.4.8-.3,1.6-.5,2.4-.5,1.9,0,3.4.7,4.7,2s2,3.1,2,5.2-.7,3.7-2,5.1-2.9,2.1-4.8,2.1-1.6-.1-2.3-.4c-.7-.3-1.4-.7-2.1-1.4v6.5h-3.6v-18.7h3.6,0ZM399.8,87.4h3.1v1.7c.3-.7.8-1.2,1.3-1.5s1.1-.5,1.8-.5.9.1,1.5.3l-1.1,3c-.4-.2-.8-.3-1-.3-.5,0-1,.3-1.4,1s-.6,1.9-.6,3.8v6.2h-3.6v-13.7h0ZM389.7,90.2c-1.1,0-2,.4-2.8,1.1s-1.1,1.7-1.1,2.9.4,2.2,1.1,2.9,1.7,1.1,2.8,1.1,2.1-.4,2.8-1.1,1.1-1.7,1.1-2.9-.4-2.2-1.1-2.9c-.7-.7-1.7-1.1-2.8-1.1h0ZM393.5,87.4h3.6v13.7h-3.6v-1.5c-.7.6-1.4,1.1-2.1,1.4s-1.5.4-2.3.4c-1.9,0-3.4-.7-4.8-2.1s-2-3.1-2-5.1.6-3.8,2-5.2c1.3-1.3,2.9-2,4.8-2s1.7.2,2.4.5c.8.3,1.5.8,2.1,1.4v-1.5h-.1ZM366.8,82.1h3.6v6.7c.7-.6,1.4-1,2.1-1.3s1.4-.4,2.1-.4c1.4,0,2.6.5,3.6,1.4.8.8,1.2,2,1.2,3.6v9h-3.5v-6c0-1.6,0-2.7-.2-3.2-.2-.6-.4-1-.8-1.3s-.9-.4-1.4-.4-1.3.2-1.9.7c-.5.5-.9,1.1-1.1,1.9-.1.4-.2,1.3-.2,2.8v5.5h-3.6v-19h.1ZM363.3,85.1l-2.7,2.3c-1-1.3-1.9-1.9-2.9-1.9s-.9.1-1.2.4c-.3.2-.5.5-.5.8s.1.6.3.9c.3.4,1.2,1.2,2.7,2.4,1.4,1.1,2.2,1.8,2.5,2.1.7.7,1.3,1.4,1.6,2.1.3.7.5,1.4.5,2.2,0,1.5-.5,2.8-1.6,3.8s-2.5,1.5-4.3,1.5-2.6-.3-3.6-1-1.9-1.7-2.6-3l3.1-1.8c.9,1.6,2,2.4,3.2,2.4s1.2-.2,1.6-.5.6-.8.6-1.2-.2-.8-.5-1.3c-.3-.4-1-1.1-2.1-1.9-2.1-1.6-3.5-2.9-4.1-3.8s-.9-1.8-.9-2.7c0-1.3.5-2.4,1.5-3.3s2.3-1.4,3.8-1.4,1.9.2,2.8.6,1.8,1.2,2.8,2.3h0Z"/>
    <polygon class="st2" points="749.7 154.7 785.5 117.4 803.5 131.7 768.2 168.7 764.6 165.7 790.1 139 787.2 136.7 761.3 163.4 756.2 159.4 781.6 132.4 778.6 130.1 752.6 157.1 749.7 154.7"/>
    <path class="st2" d="M745.2,176.5l3.6-21,3,2.4s-.5,11.4,12.3,8.9l3.5,2.7-22.4,7h0Z"/>
    <path class="st2" d="M694,174.5h9.4l3-4.2s.7-.4,1.2,0l3.6,3.5,3.5-17.2s1-.9,2,.1l3.3,24.1,2.3-6.2h3.8c0-.1,3.3-3.9,3.3-3.9,0,0,.7-.4,1.5,0l3,3.8h12.2l6.6-1.5-7.2,3.6h-12.3l-3.1-3.2-2.6,3.1h-3.5l-3.5,9.8s-.5,1.3-1.8.5l-3.1-21.9-2.5,11.6s-.5,1.2-1.5.7l-4.3-3.9-2.1,3.2h-10.9c0,.1,0-2,0-2h-.3Z"/>
  </g>
  <line class="st3" x1="336.7" y1="61.2" x2="336.7" y2="247.3"/>
  <g>
    <polygon class="st5" points="12.89 100.18 22.46 121.13 25.27 127.29 36.63 119.99 36.63 232.53 66.13 232.53 66.13 81.67 41.68 81.67 12.89 100.18"/>
    <polygon class="st6" points="233.5 133.39 236.53 139.53 243.31 140.51 238.4 145.29 239.56 152.04 233.5 148.85 227.44 152.04 228.6 145.29 223.7 140.51 230.47 139.53 233.5 133.39"/>
    <path class="st5" d="M108.29,200.63v-47.51c0-5.9,4.78-10.69,10.69-10.69h8.69v-60.76h-24.45l-28.79,18.51,9.57,20.94,2.82,6.16,11.36-7.3v112.54h29.5v-21.21h-8.69c-5.9,0-10.69-4.78-10.69-10.69Z"/>
    <g>
      <g>
        <path class="st4" d="M126.15,158.23c0-.86-.16-1.21-.37-1.67-.11-.25-2.24-3.75-2.8-4.58-.4-.59-.79-.98-1.08-1.18-.24-.16-.54-.25-.68-.25-.08,0-.16-.03-.16-.11,0-.06.06-.11.21-.11.3,0,1.49.05,1.57.05.11,0,.72-.05,1.33-.05.17,0,.21.05.21.11s-.1.08-.24.14c-.13.06-.21.16-.21.29,0,.19.08.38.21.62.25.46,2.64,4.56,2.92,5.02.3-.67,2.32-4.15,2.64-4.67.21-.33.27-.6.27-.81,0-.22-.06-.4-.25-.44-.14-.05-.24-.08-.24-.16,0-.06.1-.1.25-.1.41,0,.92.05,1.05.05.1,0,1.24-.05,1.54-.05.11,0,.21.03.21.1,0,.08-.08.13-.21.13-.17,0-.48.06-.73.22-.32.19-.49.38-.84.81-.52.64-2.75,4.37-3.03,5.05-.24.57-.24,1.06-.24,1.59v1.37c0,.25,0,.92.05,1.59.03.46.17.81.65.87.22.03.57.06.72.06.1,0,.13.05.13.1,0,.08-.08.13-.25.13-.87,0-1.87-.05-1.95-.05s-1.08.05-1.56.05c-.17,0-.25-.03-.25-.13,0-.05.03-.1.13-.1.14,0,.33-.03.48-.06.32-.06.46-.41.49-.87.05-.67.05-1.33.05-1.59v-1.37Z"/>
        <path class="st4" d="M134.78,154.94c0-2.48,0-2.92-.03-3.43-.03-.54-.16-.79-.68-.91-.13-.03-.4-.05-.54-.05-.06,0-.13-.03-.13-.1,0-.1.08-.13.25-.13.37,0,.79,0,1.14.02l.65.03c.11,0,3.27,0,3.64-.02.3-.02.56-.05.68-.08.08-.02.14-.08.22-.08.05,0,.06.06.06.14,0,.11-.08.3-.13.75-.02.16-.05.86-.08,1.05-.02.08-.05.17-.11.17-.1,0-.13-.08-.13-.21,0-.11-.02-.38-.1-.57-.11-.25-.27-.44-1.13-.54-.27-.03-2-.05-2.18-.05-.06,0-.1.05-.1.16v4.38c0,.11.02.16.1.16.21,0,2.16,0,2.53-.03.38-.03.6-.06.75-.22.11-.13.17-.21.24-.21.05,0,.08.03.08.13s-.08.37-.13.89c-.03.32-.06.91-.06,1.02,0,.13,0,.3-.11.3-.08,0-.11-.06-.11-.14,0-.16,0-.32-.06-.52-.06-.22-.21-.49-.83-.56-.43-.05-2-.08-2.27-.08-.08,0-.11.05-.11.11v1.4c0,.54-.02,2.38,0,2.72.05,1.1.29,1.3,1.84,1.3.41,0,1.11,0,1.53-.18.41-.17.6-.49.72-1.14.03-.17.06-.24.14-.24.1,0,.1.13.1.24,0,.13-.13,1.21-.21,1.54-.11.41-.24.41-.86.41-1.19,0-2.07-.03-2.68-.05-.62-.03-1-.05-1.24-.05-.03,0-.3,0-.64.02-.32,0-.68.03-.92.03-.17,0-.25-.03-.25-.13,0-.05.03-.1.13-.1.14,0,.33-.03.48-.06.32-.06.4-.41.46-.87.08-.67.08-1.92.08-3.45v-2.8Z"/>
        <path class="st4" d="M146.75,150.73c.19-.52.25-.62.35-.62s.16.08.35.57c.24.6,2.73,7.16,3.7,9.58.57,1.41,1.03,1.67,1.37,1.76.24.08.48.1.64.1.1,0,.16.02.16.1,0,.09-.14.13-.32.13-.24,0-1.4,0-2.49-.03-.3-.02-.48-.02-.48-.11,0-.06.05-.1.11-.11.1-.03.19-.18.1-.43l-1.48-3.91c-.03-.06-.06-.1-.14-.1h-3.42c-.08,0-.13.05-.16.13l-.95,2.81c-.14.4-.22.78-.22,1.06,0,.32.33.46.6.46h.16c.11,0,.16.03.16.1,0,.09-.1.13-.24.13-.38,0-1.06-.05-1.24-.05s-1.05.05-1.8.05c-.21,0-.3-.03-.3-.13,0-.06.06-.1.14-.1.11,0,.33-.02.46-.03.73-.1,1.05-.7,1.33-1.49l3.61-9.87ZM148.4,157.09c.08,0,.08-.05.06-.11l-1.51-4.29c-.08-.24-.16-.24-.24,0l-1.4,4.29c-.03.08,0,.11.05.11h3.03Z"/>
        <path class="st4" d="M155.58,154.94c0-2.48,0-2.92-.03-3.43-.03-.54-.16-.79-.68-.91-.13-.03-.4-.05-.54-.05-.06,0-.13-.03-.13-.1,0-.1.08-.13.25-.13.71,0,1.72.05,1.8.05.17,0,1.38-.05,1.87-.05,1,0,2.07.1,2.91.7.4.29,1.1,1.06,1.1,2.16,0,1.18-.49,2.35-1.92,3.67,1.3,1.67,2.38,3.08,3.3,4.07.86.91,1.54,1.08,1.94,1.14.3.05.52.05.62.05.08,0,.14.05.14.1,0,.09-.1.13-.38.13h-1.13c-.89,0-1.29-.08-1.7-.3-.68-.37-1.24-1.14-2.14-2.34-.67-.87-1.41-1.94-1.73-2.35-.06-.06-.11-.1-.21-.1l-1.95-.03c-.08,0-.11.05-.11.13v.38c0,1.53,0,2.78.08,3.45.05.46.14.81.62.87.22.03.57.06.71.06.1,0,.13.05.13.1,0,.08-.08.13-.25.13-.87,0-1.87-.05-1.95-.05-.02,0-1.02.05-1.49.05-.17,0-.25-.03-.25-.13,0-.05.03-.1.13-.1.14,0,.33-.03.48-.06.32-.06.4-.41.46-.87.08-.67.08-1.92.08-3.45v-2.8ZM156.85,156.33c0,.08.03.14.11.19.24.14.97.25,1.67.25.38,0,.83-.05,1.19-.3.56-.38.97-1.24.97-2.45,0-1.99-1.05-3.18-2.75-3.18-.48,0-.91.05-1.06.1-.08.03-.13.1-.13.19v5.2Z"/>
        <path class="st4" d="M166.38,162.14c-.22-.11-.24-.17-.24-.6,0-.79.06-1.43.08-1.68.02-.17.05-.25.13-.25.1,0,.11.05.11.17,0,.14,0,.37.05.59.24,1.18,1.29,1.62,2.35,1.62,1.53,0,2.27-1.1,2.27-2.11,0-1.1-.46-1.73-1.83-2.86l-.72-.59c-1.68-1.38-2.07-2.37-2.07-3.45,0-1.7,1.27-2.86,3.29-2.86.62,0,1.08.06,1.48.16.3.06.43.08.56.08s.16.03.16.11-.06.6-.06,1.68c0,.25-.03.37-.11.37-.1,0-.11-.08-.13-.21-.02-.19-.11-.62-.21-.79-.1-.17-.52-.84-1.99-.84-1.1,0-1.95.68-1.95,1.84,0,.91.41,1.48,1.94,2.67l.44.35c1.87,1.48,2.32,2.46,2.32,3.73,0,.65-.25,1.86-1.35,2.64-.68.48-1.54.67-2.4.67-.75,0-1.48-.11-2.13-.43Z"/>
        <path class="st4" d="M186.06,150.11c3.57,0,6.24,2.26,6.24,5.96s-2.51,6.5-6.34,6.5c-4.35,0-6.16-3.38-6.16-6.24,0-2.57,1.87-6.21,6.26-6.21ZM186.4,161.97c1.43,0,4.38-.83,4.38-5.45,0-3.81-2.32-5.86-4.83-5.86-2.65,0-4.64,1.75-4.64,5.23,0,3.7,2.22,6.08,5.08,6.08Z"/>
        <path class="st4" d="M195.67,154.94c0-2.48,0-2.92-.03-3.43-.03-.54-.16-.79-.68-.91-.13-.03-.4-.05-.54-.05-.06,0-.13-.03-.13-.1,0-.1.08-.13.25-.13.37,0,.79,0,1.14.02l.65.03c.32.02,3.54,0,3.91-.02.3-.02.56-.02.7-.06.1-.03.16-.1.22-.1s.1.06.1.14c0,.11-.08.3-.13.75-.02.16-.05.86-.08,1.05-.02.08-.05.17-.13.17s-.11-.08-.11-.19c0-.13-.05-.4-.14-.6-.1-.21-.46-.49-1.08-.51l-2.45-.05c-.1,0-.14.05-.14.17v4.38c0,.1.02.14.11.14l2.03-.02c.27,0,.49,0,.71-.02.38-.03.59-.08.73-.29.06-.08.11-.16.17-.16s.08.05.08.13c0,.1-.08.37-.13.89-.03.32-.06.95-.06,1.06,0,.14,0,.3-.11.3-.08,0-.11-.06-.11-.14-.02-.16-.03-.38-.1-.57-.08-.22-.33-.51-.83-.57-.4-.05-2.13-.05-2.4-.05-.08,0-.11.03-.11.14v1.35c0,1.53,0,2.78.08,3.45.05.46.14.81.62.87.22.03.57.06.72.06.1,0,.13.05.13.1,0,.08-.08.13-.25.13-.87,0-1.87-.05-1.95-.05s-1.08.05-1.56.05c-.17,0-.25-.03-.25-.13,0-.05.03-.1.13-.1.14,0,.33-.03.48-.06.32-.06.4-.41.46-.87.08-.67.08-1.92.08-3.45v-2.8Z"/>
      </g>
      <g>
        <path class="st4" d="M119.8,177.46c0,2.04,0,3.72.11,4.61.06.62.19,1.08.83,1.17.3.04.77.08.96.08.13,0,.17.06.17.13,0,.11-.11.17-.34.17-1.17,0-2.51-.06-2.62-.06s-1.45.06-2.08.06c-.23,0-.34-.04-.34-.17,0-.06.04-.13.17-.13.19,0,.45-.04.64-.08.43-.09.53-.55.62-1.17.11-.89.11-2.57.11-4.61v-8.99l-3.15.04c-1.32.02-1.83.17-2.17.68-.23.36-.3.51-.36.66-.06.17-.13.21-.21.21-.06,0-.11-.06-.11-.19,0-.21.43-2.04.47-2.21.04-.13.13-.4.21-.4.15,0,.36.21.94.25.62.06,1.42.11,1.68.11h7.97c.68,0,1.17-.04,1.51-.11.32-.04.51-.11.59-.11.11,0,.11.13.11.25,0,.64-.06,2.1-.06,2.34,0,.19-.06.28-.15.28-.11,0-.15-.06-.17-.36l-.02-.23c-.06-.64-.57-1.13-2.61-1.17l-2.68-.04v8.99Z"/>
        <path class="st4" d="M129.96,173.72c0-3.32,0-3.91-.04-4.59-.04-.72-.21-1.06-.91-1.21-.17-.04-.53-.06-.72-.06-.09,0-.17-.04-.17-.13,0-.13.11-.17.34-.17.96,0,2.3.06,2.4.06.23,0,1.85-.06,2.51-.06,1.34,0,2.76.13,3.89.94.53.38,1.47,1.42,1.47,2.89,0,1.57-.66,3.15-2.57,4.91,1.74,2.23,3.19,4.12,4.42,5.44,1.15,1.21,2.06,1.45,2.59,1.53.4.06.7.06.83.06.11,0,.19.06.19.13,0,.13-.13.17-.51.17h-1.51c-1.19,0-1.72-.11-2.27-.4-.91-.49-1.66-1.53-2.87-3.13-.89-1.17-1.89-2.59-2.32-3.15-.08-.08-.15-.13-.28-.13l-2.61-.04c-.11,0-.15.06-.15.17v.51c0,2.04,0,3.72.11,4.61.06.62.19,1.08.83,1.17.3.04.77.08.96.08.13,0,.17.06.17.13,0,.11-.11.17-.34.17-1.17,0-2.51-.06-2.61-.06-.02,0-1.36.06-2,.06-.23,0-.34-.04-.34-.17,0-.06.04-.13.17-.13.19,0,.45-.04.64-.08.42-.09.53-.55.62-1.17.11-.89.11-2.57.11-4.61v-3.74ZM131.66,175.57c0,.11.04.19.15.25.32.19,1.3.34,2.23.34.51,0,1.11-.06,1.59-.4.74-.51,1.3-1.66,1.3-3.27,0-2.66-1.4-4.25-3.68-4.25-.64,0-1.21.06-1.42.13-.11.04-.17.13-.17.25v6.95Z"/>
        <path class="st4" d="M149.16,168.08c.25-.7.34-.83.47-.83s.21.11.47.76c.32.81,3.66,9.59,4.95,12.82.77,1.89,1.38,2.23,1.83,2.36.32.11.64.13.85.13.13,0,.21.02.21.13,0,.13-.19.17-.42.17-.32,0-1.87,0-3.34-.04-.4-.02-.64-.02-.64-.15,0-.08.06-.13.15-.15.13-.04.26-.23.13-.57l-1.98-5.23c-.04-.08-.08-.13-.19-.13h-4.57c-.11,0-.17.06-.21.17l-1.28,3.76c-.19.53-.3,1.04-.3,1.42,0,.43.45.62.81.62h.21c.15,0,.21.04.21.13,0,.13-.13.17-.32.17-.51,0-1.42-.06-1.66-.06s-1.4.06-2.4.06c-.28,0-.4-.04-.4-.17,0-.08.08-.13.19-.13.15,0,.45-.02.62-.04.98-.13,1.4-.94,1.79-2l4.83-13.2ZM151.37,176.59c.11,0,.11-.06.08-.15l-2.02-5.74c-.11-.32-.21-.32-.32,0l-1.87,5.74c-.04.11,0,.15.06.15h4.06Z"/>
        <path class="st4" d="M161.55,180.73c.04,1.74.25,2.3.83,2.47.4.11.87.13,1.06.13.11,0,.17.04.17.13,0,.13-.13.17-.38.17-1.21,0-2.06-.06-2.25-.06s-1.08.06-2.04.06c-.21,0-.34-.02-.34-.17,0-.08.06-.13.17-.13.17,0,.55-.02.87-.13.53-.15.64-.77.64-2.7l.02-12.18c0-.83.06-1.06.23-1.06s.53.47.74.68c.32.36,3.49,3.78,6.76,7.29,2.1,2.25,4.42,4.85,5.1,5.55l-.23-10.8c-.02-1.38-.17-1.85-.83-2.02-.38-.08-.87-.11-1.04-.11-.15,0-.17-.06-.17-.15,0-.13.17-.15.42-.15.96,0,1.98.06,2.21.06s.94-.06,1.81-.06c.23,0,.38.02.38.15,0,.08-.08.15-.23.15-.11,0-.25,0-.51.06-.7.15-.79.62-.79,1.89l-.04,12.46c0,1.4-.04,1.51-.19,1.51-.17,0-.43-.23-1.55-1.36-.23-.21-3.3-3.34-5.55-5.76-2.47-2.66-4.87-5.34-5.55-6.1l.28,10.18Z"/>
        <path class="st4" d="M179.75,183.35c-.3-.15-.32-.23-.32-.81,0-1.06.08-1.91.11-2.25.02-.23.06-.34.17-.34.13,0,.15.06.15.23,0,.19,0,.49.06.79.32,1.57,1.72,2.17,3.15,2.17,2.04,0,3.04-1.47,3.04-2.83,0-1.47-.62-2.32-2.44-3.83l-.96-.79c-2.25-1.85-2.76-3.17-2.76-4.61,0-2.27,1.7-3.83,4.4-3.83.83,0,1.45.08,1.98.21.4.08.57.11.74.11s.21.04.21.15-.08.81-.08,2.25c0,.34-.04.49-.15.49-.13,0-.15-.11-.17-.28-.02-.25-.15-.83-.28-1.06-.13-.23-.7-1.13-2.66-1.13-1.47,0-2.61.91-2.61,2.47,0,1.21.55,1.98,2.59,3.57l.6.47c2.51,1.98,3.1,3.3,3.1,5,0,.87-.34,2.49-1.81,3.53-.91.64-2.06.89-3.21.89-1,0-1.98-.15-2.85-.57Z"/>
        <path class="st4" d="M193.23,173.72c0-3.32,0-3.91-.04-4.59-.04-.72-.21-1.06-.91-1.21-.17-.04-.53-.06-.72-.06-.09,0-.17-.04-.17-.13,0-.13.11-.17.34-.17.49,0,1.06,0,1.53.02l.87.04c.42.02,4.74,0,5.23-.02.4-.02.74-.02.94-.08.13-.04.21-.13.3-.13s.13.08.13.19c0,.15-.11.4-.17,1-.02.21-.06,1.15-.11,1.4-.02.11-.06.23-.17.23s-.15-.11-.15-.25c0-.17-.06-.53-.19-.81-.13-.28-.62-.66-1.45-.68l-3.27-.06c-.13,0-.19.06-.19.23v5.87c0,.13.02.19.15.19l2.72-.02c.36,0,.66,0,.96-.02.51-.04.79-.11.98-.38.08-.11.15-.21.23-.21s.11.06.11.17c0,.13-.11.49-.17,1.19-.04.42-.08,1.28-.08,1.42,0,.19,0,.4-.15.4-.11,0-.15-.08-.15-.19-.02-.21-.04-.51-.13-.77-.11-.3-.45-.68-1.11-.76-.53-.06-2.85-.06-3.21-.06-.11,0-.15.04-.15.19v1.81c0,2.04,0,3.72.11,4.61.06.62.19,1.08.83,1.17.3.04.76.08.96.08.13,0,.17.06.17.13,0,.11-.11.17-.34.17-1.17,0-2.51-.06-2.61-.06s-1.45.06-2.08.06c-.23,0-.34-.04-.34-.17,0-.06.04-.13.17-.13.19,0,.45-.04.64-.08.43-.09.53-.55.62-1.17.11-.89.11-2.57.11-4.61v-3.74Z"/>
        <path class="st4" d="M211.77,167.25c4.78,0,8.36,3.02,8.36,7.97s-3.36,8.7-8.48,8.7c-5.83,0-8.25-4.53-8.25-8.36,0-3.44,2.51-8.31,8.38-8.31ZM212.22,183.11c1.91,0,5.87-1.11,5.87-7.29,0-5.1-3.1-7.84-6.46-7.84-3.55,0-6.21,2.34-6.21,6.99,0,4.95,2.98,8.14,6.8,8.14Z"/>
        <path class="st4" d="M224.64,173.72c0-3.32,0-3.91-.04-4.59-.04-.72-.21-1.06-.91-1.21-.17-.04-.53-.06-.72-.06-.08,0-.17-.04-.17-.13,0-.13.11-.17.34-.17.96,0,2.3.06,2.4.06.23,0,1.85-.06,2.51-.06,1.34,0,2.76.13,3.89.94.53.38,1.47,1.42,1.47,2.89,0,1.57-.66,3.15-2.57,4.91,1.74,2.23,3.19,4.12,4.42,5.44,1.15,1.21,2.06,1.45,2.59,1.53.4.06.7.06.83.06.11,0,.19.06.19.13,0,.13-.13.17-.51.17h-1.51c-1.19,0-1.72-.11-2.27-.4-.91-.49-1.66-1.53-2.87-3.13-.89-1.17-1.89-2.59-2.32-3.15-.08-.08-.15-.13-.28-.13l-2.61-.04c-.11,0-.15.06-.15.17v.51c0,2.04,0,3.72.11,4.61.06.62.19,1.08.83,1.17.3.04.77.08.96.08.13,0,.17.06.17.13,0,.11-.11.17-.34.17-1.17,0-2.51-.06-2.61-.06-.02,0-1.36.06-2,.06-.23,0-.34-.04-.34-.17,0-.06.04-.13.17-.13.19,0,.45-.04.64-.08.43-.09.53-.55.62-1.17.11-.89.11-2.57.11-4.61v-3.74ZM226.34,175.57c0,.11.04.19.15.25.32.19,1.3.34,2.23.34.51,0,1.1-.06,1.59-.4.74-.51,1.3-1.66,1.3-3.27,0-2.66-1.4-4.25-3.68-4.25-.64,0-1.21.06-1.42.13-.11.04-.17.13-.17.25v6.95Z"/>
        <path class="st4" d="M256.48,180.88c.08.76.23,1.96,1.15,2.25.62.19,1.17.19,1.38.19.11,0,.17.02.17.11,0,.13-.19.19-.45.19-.47,0-2.76-.06-3.55-.13-.49-.04-.59-.11-.59-.21,0-.08.04-.13.15-.15.11-.02.13-.38.08-.77l-1.02-10.97h-.06l-5.21,11.06c-.45.94-.51,1.13-.7,1.13-.15,0-.25-.21-.66-.98-.55-1.04-2.38-4.72-2.49-4.93-.19-.38-2.57-5.49-2.81-6.06h-.08l-.85,9.86c-.02.34-.02.72-.02,1.08,0,.32.23.59.55.66.36.08.68.11.81.11.09,0,.17.04.17.11,0,.15-.13.19-.38.19-.79,0-1.81-.06-1.98-.06-.19,0-1.21.06-1.79.06-.21,0-.36-.04-.36-.19,0-.06.11-.11.21-.11.17,0,.32,0,.64-.06.7-.13.77-.96.85-1.76l1.53-13.86c.02-.23.11-.38.23-.38s.21.08.32.32l6.51,13.37,6.25-13.35c.08-.19.17-.34.32-.34s.21.17.26.57l1.42,13.05Z"/>
        <path class="st4" d="M264.78,177.46c0,2.04,0,3.72.11,4.61.06.62.19,1.08.83,1.17.3.04.77.08.96.08.13,0,.17.06.17.13,0,.11-.11.17-.34.17-1.17,0-2.51-.06-2.62-.06s-1.45.06-2.08.06c-.23,0-.34-.04-.34-.17,0-.06.04-.13.17-.13.19,0,.45-.04.64-.08.43-.09.53-.55.62-1.17.11-.89.11-2.57.11-4.61v-3.74c0-3.32,0-3.91-.04-4.59-.04-.72-.25-1.08-.72-1.19-.23-.06-.51-.08-.66-.08-.08,0-.17-.04-.17-.13,0-.13.11-.17.34-.17.7,0,2.04.06,2.15.06s1.45-.06,2.08-.06c.23,0,.34.04.34.17,0,.08-.08.13-.17.13-.15,0-.28.02-.53.06-.57.11-.74.47-.79,1.21-.04.68-.04,1.28-.04,4.59v3.74Z"/>
        <path class="st4" d="M272.92,180.73c.04,1.74.25,2.3.83,2.47.4.11.87.13,1.06.13.11,0,.17.04.17.13,0,.13-.13.17-.38.17-1.21,0-2.06-.06-2.25-.06s-1.08.06-2.04.06c-.21,0-.34-.02-.34-.17,0-.08.06-.13.17-.13.17,0,.55-.02.87-.13.53-.15.64-.77.64-2.7l.02-12.18c0-.83.06-1.06.23-1.06s.53.47.74.68c.32.36,3.49,3.78,6.76,7.29,2.1,2.25,4.42,4.85,5.1,5.55l-.23-10.8c-.02-1.38-.17-1.85-.83-2.02-.38-.08-.87-.11-1.04-.11-.15,0-.17-.06-.17-.15,0-.13.17-.15.43-.15.96,0,1.98.06,2.21.06s.94-.06,1.81-.06c.23,0,.38.02.38.15,0,.08-.08.15-.23.15-.11,0-.26,0-.51.06-.7.15-.79.62-.79,1.89l-.04,12.46c0,1.4-.04,1.51-.19,1.51-.17,0-.43-.23-1.55-1.36-.23-.21-3.3-3.34-5.55-5.76-2.47-2.66-4.87-5.34-5.55-6.1l.28,10.18Z"/>
        <path class="st4" d="M302.26,178.2c0-1.72-.11-1.96-.96-2.19-.17-.04-.53-.06-.72-.06-.08,0-.17-.04-.17-.13,0-.13.11-.17.34-.17.96,0,2.3.06,2.4.06s1.45-.06,2.08-.06c.23,0,.34.04.34.17,0,.08-.08.13-.17.13-.15,0-.28.02-.53.06-.57.11-.74.47-.79,1.21-.04.68-.04,1.32-.04,2.21v2.38c0,.96-.02,1-.28,1.15-1.36.72-3.27.96-4.51.96-1.62,0-4.63-.21-6.99-2.27-1.3-1.13-2.53-3.4-2.53-6.06,0-3.4,1.66-5.8,3.55-6.99,1.91-1.19,4.02-1.34,5.66-1.34,1.34,0,2.85.28,3.25.36.45.11,1.19.19,1.72.21.21.02.25.11.25.19,0,.3-.15.89-.15,3.02,0,.34-.04.45-.19.45-.11,0-.13-.13-.15-.32-.02-.3-.13-.89-.45-1.4-.53-.81-2.25-1.72-5-1.72-1.34,0-2.93.13-4.55,1.4-1.23.98-2.1,2.91-2.1,5.4,0,3,1.51,5.17,2.25,5.89,1.68,1.64,3.61,2.27,5.57,2.27.77,0,1.87-.13,2.42-.45.28-.15.42-.38.42-.74v-3.61Z"/>
      </g>
      <g>
        <path class="st4" d="M123.92,202.89c-2.06-1.85-2.57-4.27-2.57-6.29,0-1.42.49-3.91,2.38-5.8,1.28-1.28,3.21-2.27,6.48-2.27.85,0,2.04.06,3.08.25.81.15,1.49.28,2.17.32.23.02.28.11.28.23,0,.17-.06.42-.11,1.19-.04.7-.04,1.87-.06,2.19-.02.32-.06.45-.19.45-.15,0-.17-.15-.17-.45,0-.83-.34-1.7-.89-2.17-.74-.64-2.38-1.21-4.25-1.21-2.83,0-4.15.83-4.89,1.55-1.55,1.49-1.91,3.38-1.91,5.55,0,4.06,3.13,7.78,7.67,7.78,1.59,0,2.85-.19,3.7-1.06.45-.47.72-1.4.79-1.79.04-.23.08-.32.21-.32.11,0,.15.15.15.32,0,.15-.26,2-.47,2.72-.13.4-.17.45-.55.62-.85.34-2.47.49-3.83.49-3.19,0-5.34-.79-7.02-2.3Z"/>
        <path class="st4" d="M143.95,189.34c.25-.7.34-.83.47-.83s.21.11.47.76c.32.81,3.66,9.59,4.95,12.82.77,1.89,1.38,2.23,1.83,2.36.32.11.64.13.85.13.13,0,.21.02.21.13,0,.13-.19.17-.42.17-.32,0-1.87,0-3.34-.04-.4-.02-.64-.02-.64-.15,0-.08.06-.13.15-.15.13-.04.26-.23.13-.57l-1.98-5.23c-.04-.08-.08-.13-.19-.13h-4.57c-.11,0-.17.06-.21.17l-1.28,3.76c-.19.53-.3,1.04-.3,1.42,0,.43.45.62.81.62h.21c.15,0,.21.04.21.13,0,.13-.13.17-.32.17-.51,0-1.42-.06-1.66-.06s-1.4.06-2.4.06c-.28,0-.4-.04-.4-.17,0-.08.08-.13.19-.13.15,0,.45-.02.62-.04.98-.13,1.4-.94,1.79-2l4.83-13.2ZM146.16,197.85c.11,0,.11-.06.08-.15l-2.02-5.74c-.11-.32-.21-.32-.32,0l-1.87,5.74c-.04.11,0,.15.06.15h4.06Z"/>
        <path class="st4" d="M155.77,194.98c0-3.32,0-3.91-.04-4.59-.04-.72-.21-1.06-.91-1.21-.17-.04-.53-.06-.72-.06-.09,0-.17-.04-.17-.13,0-.13.11-.17.34-.17.96,0,2.3.06,2.4.06.23,0,1.85-.06,2.51-.06,1.34,0,2.76.13,3.89.94.53.38,1.47,1.42,1.47,2.89,0,1.57-.66,3.15-2.57,4.91,1.74,2.23,3.19,4.12,4.42,5.44,1.15,1.21,2.06,1.45,2.59,1.53.4.06.7.06.83.06.11,0,.19.06.19.13,0,.13-.13.17-.51.17h-1.51c-1.19,0-1.72-.11-2.27-.4-.91-.49-1.66-1.53-2.87-3.13-.89-1.17-1.89-2.59-2.32-3.15-.08-.08-.15-.13-.28-.13l-2.61-.04c-.11,0-.15.06-.15.17v.51c0,2.04,0,3.72.11,4.61.06.62.19,1.08.83,1.17.3.04.77.08.96.08.13,0,.17.06.17.13,0,.11-.11.17-.34.17-1.17,0-2.51-.06-2.61-.06-.02,0-1.36.06-2,.06-.23,0-.34-.04-.34-.17,0-.06.04-.13.17-.13.19,0,.45-.04.64-.08.43-.09.53-.55.62-1.17.11-.89.11-2.57.11-4.61v-3.74ZM157.47,196.83c0,.11.04.19.15.25.32.19,1.3.34,2.23.34.51,0,1.11-.06,1.59-.4.74-.51,1.3-1.66,1.3-3.27,0-2.66-1.4-4.25-3.68-4.25-.64,0-1.21.06-1.42.13-.11.04-.17.13-.17.25v6.95Z"/>
        <path class="st4" d="M171.8,194.98c0-3.32,0-3.91-.04-4.59-.04-.72-.21-1.06-.91-1.21-.17-.04-.53-.06-.72-.06-.09,0-.17-.04-.17-.13,0-.13.11-.17.34-.17.49,0,1.06,0,1.53.02l.87.04c.15,0,4.38,0,4.87-.02.4-.02.74-.06.91-.11.11-.02.19-.11.3-.11.06,0,.08.08.08.19,0,.15-.11.4-.17,1-.02.21-.06,1.15-.11,1.4-.02.11-.06.23-.15.23-.13,0-.17-.11-.17-.28,0-.15-.02-.51-.13-.76-.15-.34-.36-.6-1.51-.72-.36-.04-2.68-.06-2.91-.06-.08,0-.13.06-.13.21v5.87c0,.15.02.21.13.21.28,0,2.89,0,3.38-.04.51-.04.81-.08,1-.3.15-.17.23-.28.32-.28.06,0,.11.04.11.17s-.11.49-.17,1.19c-.04.42-.08,1.21-.08,1.36,0,.17,0,.4-.15.4-.11,0-.15-.08-.15-.19,0-.21,0-.42-.09-.7-.08-.3-.28-.66-1.11-.74-.57-.06-2.68-.11-3.04-.11-.11,0-.15.06-.15.15v1.87c0,.72-.02,3.19,0,3.64.06,1.47.38,1.74,2.47,1.74.55,0,1.49,0,2.04-.23.55-.23.81-.66.96-1.53.04-.23.08-.32.19-.32.13,0,.13.17.13.32,0,.17-.17,1.62-.28,2.06-.15.55-.32.55-1.15.55-1.59,0-2.76-.04-3.59-.06-.83-.04-1.34-.06-1.66-.06-.04,0-.4,0-.85.02-.43,0-.91.04-1.23.04-.23,0-.34-.04-.34-.17,0-.06.04-.13.17-.13.19,0,.45-.04.64-.08.43-.09.53-.55.62-1.17.11-.89.11-2.57.11-4.61v-3.74Z"/>
        <path class="st4" d="M184.77,194.98c0-3.32,0-3.91-.04-4.59-.04-.72-.21-1.06-.91-1.21-.17-.04-.53-.06-.72-.06-.09,0-.17-.04-.17-.13,0-.13.11-.17.34-.17.49,0,1.06,0,1.53.02l.87.04c.15,0,4.38,0,4.87-.02.4-.02.74-.06.91-.11.11-.02.19-.11.3-.11.06,0,.08.08.08.19,0,.15-.11.4-.17,1-.02.21-.06,1.15-.11,1.4-.02.11-.06.23-.15.23-.13,0-.17-.11-.17-.28,0-.15-.02-.51-.13-.76-.15-.34-.36-.6-1.51-.72-.36-.04-2.68-.06-2.91-.06-.08,0-.13.06-.13.21v5.87c0,.15.02.21.13.21.28,0,2.89,0,3.38-.04.51-.04.81-.08,1-.3.15-.17.23-.28.32-.28.06,0,.11.04.11.17s-.11.49-.17,1.19c-.04.42-.08,1.21-.08,1.36,0,.17,0,.4-.15.4-.11,0-.15-.08-.15-.19,0-.21,0-.42-.09-.7-.08-.3-.28-.66-1.11-.74-.57-.06-2.68-.11-3.04-.11-.11,0-.15.06-.15.15v1.87c0,.72-.02,3.19,0,3.64.06,1.47.38,1.74,2.47,1.74.55,0,1.49,0,2.04-.23.55-.23.81-.66.96-1.53.04-.23.08-.32.19-.32.13,0,.13.17.13.32,0,.17-.17,1.62-.28,2.06-.15.55-.32.55-1.15.55-1.59,0-2.76-.04-3.59-.06-.83-.04-1.34-.06-1.66-.06-.04,0-.4,0-.85.02-.43,0-.91.04-1.23.04-.23,0-.34-.04-.34-.17,0-.06.04-.13.17-.13.19,0,.45-.04.64-.08.43-.09.53-.55.62-1.17.11-.89.11-2.57.11-4.61v-3.74Z"/>
        <path class="st4" d="M197.74,194.98c0-3.32,0-3.91-.04-4.59-.04-.72-.21-1.06-.91-1.21-.17-.04-.53-.06-.72-.06-.09,0-.17-.04-.17-.13,0-.13.11-.17.34-.17.96,0,2.3.06,2.4.06.23,0,1.85-.06,2.51-.06,1.34,0,2.76.13,3.89.94.53.38,1.47,1.42,1.47,2.89,0,1.57-.66,3.15-2.57,4.91,1.74,2.23,3.19,4.12,4.42,5.44,1.15,1.21,2.06,1.45,2.59,1.53.4.06.7.06.83.06.11,0,.19.06.19.13,0,.13-.13.17-.51.17h-1.51c-1.19,0-1.72-.11-2.27-.4-.91-.49-1.66-1.53-2.87-3.13-.89-1.17-1.89-2.59-2.32-3.15-.08-.08-.15-.13-.28-.13l-2.61-.04c-.11,0-.15.06-.15.17v.51c0,2.04,0,3.72.11,4.61.06.62.19,1.08.83,1.17.3.04.77.08.96.08.13,0,.17.06.17.13,0,.11-.11.17-.34.17-1.17,0-2.51-.06-2.61-.06-.02,0-1.36.06-2,.06-.23,0-.34-.04-.34-.17,0-.06.04-.13.17-.13.19,0,.45-.04.64-.08.43-.09.53-.55.62-1.17.11-.89.11-2.57.11-4.61v-3.74ZM199.44,196.83c0,.11.04.19.15.25.32.19,1.3.34,2.23.34.51,0,1.11-.06,1.59-.4.74-.51,1.3-1.66,1.3-3.27,0-2.66-1.4-4.25-3.68-4.25-.64,0-1.21.06-1.42.13-.11.04-.17.13-.17.25v6.95Z"/>
        <path class="st4" d="M212.2,204.61c-.3-.15-.32-.23-.32-.81,0-1.06.08-1.91.11-2.25.02-.23.06-.34.17-.34.13,0,.15.06.15.23,0,.19,0,.49.06.79.32,1.57,1.72,2.17,3.15,2.17,2.04,0,3.04-1.47,3.04-2.83,0-1.47-.62-2.32-2.44-3.83l-.96-.79c-2.25-1.85-2.76-3.17-2.76-4.61,0-2.27,1.7-3.83,4.4-3.83.83,0,1.45.08,1.98.21.4.08.57.11.74.11s.21.04.21.15-.08.81-.08,2.25c0,.34-.04.49-.15.49-.13,0-.15-.11-.17-.28-.02-.25-.15-.83-.28-1.06-.13-.23-.7-1.13-2.66-1.13-1.47,0-2.61.91-2.61,2.47,0,1.21.55,1.98,2.59,3.57l.6.47c2.51,1.98,3.1,3.3,3.1,5,0,.87-.34,2.49-1.81,3.53-.91.64-2.06.89-3.21.89-1,0-1.98-.15-2.85-.57Z"/>
      </g>
    </g>
    <polygon class="st6" points="212.06 141.13 215.09 147.27 221.87 148.25 216.96 153.03 218.12 159.78 212.06 156.6 206 159.78 207.16 153.03 202.26 148.25 209.03 147.27 212.06 141.13"/>
  </g>
</svg>